<svg width="1949" height="1949" xmlns="http://www.w3.org/2000/svg" xmlns:xlink="http://www.w3.org/1999/xlink" xml:space="preserve" overflow="hidden"><g transform="translate(-2257 -178)"><path d="M2257 502.84C2257 323.436 2402.44 178 2581.84 178L3881.16 178C4060.56 178 4206 323.436 4206 502.84L4206 1802.16C4206 1981.56 4060.56 2127 3881.16 2127L2581.84 2127C2402.44 2127 2257 1981.56 2257 1802.16Z" fill="#DDDDDD" fill-rule="evenodd"/><g><g><g><path d="M3342.45 974.384 3490.29 409.377C3493.86 395.476 3485.48 381.318 3471.58 377.754 3462.3 375.375 3452.47 378.291 3445.99 385.342L2732.23 1173.03C2722.53 1183.6 2723.24 1200.04 2733.81 1209.74 2737.11 1212.76 2741.13 1214.88 2745.48 1215.9L3101.58 1298.53C3115.54 1301.85 3124.17 1315.86 3120.85 1329.82 3120.8 1330.04 3120.74 1330.26 3120.68 1330.49L2972.84 1895.36C2969.16 1909.24 2977.43 1923.46 2991.3 1927.13 3000.72 1929.62 3010.75 1926.64 3017.27 1919.39L3730.77 1131.71C3740.47 1121.14 3739.76 1104.7 3729.19 1095 3725.89 1091.98 3721.87 1089.86 3717.52 1088.84L3361.42 1006.34C3347.46 1003 3338.85 988.986 3342.19 975.03 3342.23 974.858 3342.27 974.686 3342.32 974.514Z" fill="#444444"/></g></g></g></g></svg>